<?xml version="1.0" encoding="UTF-8" standalone="no"?>
<!-- Created with Inkscape (http://www.inkscape.org/) -->

<svg
   xmlns:dc="http://purl.org/dc/elements/1.1/"
   xmlns:cc="http://creativecommons.org/ns#"
   xmlns:rdf="http://www.w3.org/1999/02/22-rdf-syntax-ns#"
   xmlns:svg="http://www.w3.org/2000/svg"
   xmlns="http://www.w3.org/2000/svg"
   xmlns:sodipodi="http://sodipodi.sourceforge.net/DTD/sodipodi-0.dtd"
   xmlns:inkscape="http://www.inkscape.org/namespaces/inkscape"
   width="339.55374mm"
   height="73.754013mm"
   viewBox="0 0 339.55374 73.754013"
   version="1.1"
   id="svg8"
   inkscape:version="0.92.5 (2060ec1f9f, 2020-04-08)"
   sodipodi:docname="AMAZON-PAY-2025.svg">
  <defs
     id="defs2" />
  <sodipodi:namedview
     id="base"
     pagecolor="#ffffff"
     bordercolor="#666666"
     borderopacity="1.0"
     inkscape:pageopacity="0.0"
     inkscape:pageshadow="2"
     inkscape:zoom="1.1353075"
     inkscape:cx="641.67637"
     inkscape:cy="139.37767"
     inkscape:document-units="mm"
     inkscape:current-layer="layer1"
     showgrid="false"
     inkscape:snap-smooth-nodes="true"
     showguides="true"
     inkscape:guide-bbox="true"
     inkscape:object-paths="true"
     inkscape:window-width="1920"
     inkscape:window-height="1009"
     inkscape:window-x="-8"
     inkscape:window-y="-8"
     inkscape:window-maximized="1" />
  <metadata
     id="metadata5">
    <rdf:RDF>
      <cc:Work
         rdf:about="">
        <dc:format>image/svg+xml</dc:format>
        <dc:type
           rdf:resource="http://purl.org/dc/dcmitype/StillImage" />
        <dc:title></dc:title>
      </cc:Work>
    </rdf:RDF>
  </metadata>
  <g
     inkscape:label="Layer 1"
     inkscape:groupmode="layer"
     id="layer1"
     transform="translate(65.935948,-110.37766)">
    <path
       style="fill:#161d26;fill-opacity:1;fill-rule:nonzero;stroke:none;stroke-width:2.82345748"
       inkscape:connector-curvature="0"
       d="m -55.167764,149.48559 c -2.132616,0 -4.009905,-0.46559 -5.631891,-1.39677 -1.621998,-0.96109 -2.883541,-2.28275 -3.784642,-3.96497 -0.9011,-1.71186 -1.351651,-3.67926 -1.351651,-5.90216 0,-2.67325 0.660806,-5.01615 1.982429,-7.02843 1.351651,-2.01257 3.25898,-3.55953 5.721999,-4.64092 2.493046,-1.08111 5.406627,-1.62179 8.740707,-1.62179 1.531866,0 2.778401,0.10508 3.739593,0.31537 v -0.94613 c 0,-2.28288 -0.420534,-3.97997 -1.261555,-5.09132 -0.841021,-1.14141 -2.117596,-1.71212 -3.829701,-1.71212 -2.763382,0 -4.535555,1.4568 -5.316496,4.37035 -0.240295,0.84106 -0.735906,1.2015 -1.486831,1.08133 l -6.127489,-1.08133 c -0.450574,-0.0901 -0.765945,-0.28534 -0.946172,-0.5857 -0.150176,-0.30038 -0.165196,-0.70586 -0.045,-1.21649 0.780953,-3.06375 2.432991,-5.43668 4.956054,-7.11872 2.553138,-1.71209 5.752062,-2.56813 9.59676,-2.56813 4.565594,0 8.03483,1.2315 10.407752,3.69452 2.402987,2.46302 3.604368,6.05239 3.604368,10.7683 v 22.66277 c 0,0.33034 -0.119995,0.61551 -0.360278,0.85578 -0.210349,0.21035 -0.480838,0.31538 -0.811181,0.31538 h -5.857119 c -0.720886,0 -1.171424,-0.39048 -1.35164,-1.17116 l -0.901112,-4.23519 h -0.360443 c -0.810981,1.98234 -2.027464,3.51407 -3.649462,4.59545 -1.591946,1.08139 -3.484255,1.62208 -5.676951,1.62208 z m -0.946172,-12.34528 c 0,1.59214 0.405502,2.86864 1.216483,3.82973 0.841057,0.93118 1.967421,1.39677 3.379151,1.39677 1.862293,0 3.289044,-0.82614 4.280252,-2.47815 0.991197,-1.68194 1.48683,-4.08497 1.48683,-7.20857 v -2.38807 c -0.841056,-0.15022 -1.637017,-0.22533 -2.387942,-0.22533 -2.463019,0 -4.415408,0.64573 -5.857178,1.93747 -1.411731,1.26152 -2.117596,2.97367 -2.117596,5.13615 z m 25.50113,-24.78025 c 0,-0.3304 0.105316,-0.60071 0.315383,-0.81098 0.240271,-0.24031 0.525732,-0.36044 0.856076,-0.36044 h 5.947321 c 0.330344,0 0.600832,0.10508 0.810899,0.31538 0.240566,0.21026 0.390482,0.4956 0.450621,0.85604 l 0.901254,4.41541 h 0.360277 c 0.81117,-2.07252 1.967385,-3.64946 3.469459,-4.73079 1.531725,-1.11137 3.333939,-1.66702 5.406357,-1.66702 2.2229121,0 4.1301586,0.58569 5.7220222,1.75715 1.6220684,1.17142 2.8686271,2.83848 3.7396644,5.0011 h 0.3605604 c 1.32165832,-2.28279 2.80848856,-3.97986 4.4604907,-5.09123 1.652014,-1.11137 3.4991102,-1.66702 5.5416066,-1.66702 2.2229003,0 4.1451197,0.60071 5.7671877,1.80219 1.652014,1.20148 2.913534,2.91358 3.784571,5.13629 0.871038,2.22273 1.306686,4.85095 1.306686,7.88461 v 22.3025 c 0,0.33034 -0.120277,0.61551 -0.360549,0.85578 -0.210349,0.21035 -0.480555,0.31538 -0.810899,0.31538 H 10.20733 c -0.3303439,0 -0.615793,-0.10508 -0.8560763,-0.31538 -0.2103377,-0.24027 -0.3153711,-0.52544 -0.3153711,-0.85578 v -21.58167 c 0,-2.19269 -0.4204163,-3.87466 -1.2615197,-5.04609 -0.8411153,-1.17142 -2.0574575,-1.75714 -3.6496038,-1.75714 -1.7420746,0 -3.0787057,0.69084 -4.00988153,2.07253 -0.90095931,1.38169 -1.35158037,3.37911 -1.35158037,5.99222 v 20.32015 c 0,0.33034 -0.1202771,0.61551 -0.3605604,0.85578 -0.2100667,0.21035 -0.4805548,0.31538 -0.8108987,0.31538 h -7.2088525 c -0.3303439,0 -0.6157926,-0.10508 -0.8560646,-0.31538 -0.210349,-0.24027 -0.315383,-0.52544 -0.315383,-0.85578 v -21.58167 c 0,-2.19269 -0.420416,-3.87466 -1.261519,-5.04609 -0.841116,-1.17142 -2.057458,-1.75714 -3.649322,-1.75714 -1.742357,0 -3.078976,0.69084 -4.010152,2.07253 -0.900971,1.38169 -1.351592,3.37911 -1.351592,5.99222 v 20.32015 c 0,0.33034 -0.119994,0.61551 -0.360278,0.85578 -0.210349,0.21035 -0.480826,0.31538 -0.811181,0.31538 h -7.208841 c -0.330344,0 -0.615805,-0.10508 -0.856076,-0.31538 -0.210067,-0.24027 -0.315383,-0.52544 -0.315383,-0.85578 z m 53.885966,25.86163 c 0,-2.67325 0.660971,-5.01615 1.982629,-7.02843 1.351592,-2.01257 3.258838,-3.55953 5.722022,-4.64092 2.492835,-1.08111 5.406639,-1.62179 8.740578,-1.62179 1.532007,0 2.778566,0.10508 3.739676,0.31537 v -0.94613 c 0,-2.28288 -0.420699,-3.97997 -1.26152,-5.09132 -0.841115,-1.14141 -2.117596,-1.71212 -3.829748,-1.71212 -2.763311,0 -4.535603,1.4568 -5.316567,4.37035 -0.240272,0.84106 -0.735788,1.2015 -1.486831,1.08133 l -6.127465,-1.08133 c -0.450621,-0.0901 -0.766004,-0.28534 -0.946149,-0.5857 -0.150199,-0.30038 -0.165172,-0.70586 -0.04512,-1.21649 0.780965,-3.06375 2.432967,-5.43668 4.95629,-7.11872 2.552973,-1.71209 5.751944,-2.56813 9.596653,-2.56813 4.565525,0 8.034713,1.2315 10.407824,3.69452 2.402762,2.46302 3.604426,6.05239 3.604426,10.7683 v 22.66277 c 0,0.33034 -0.120277,0.61551 -0.360548,0.85578 -0.21035,0.21035 -0.480555,0.31538 -0.810899,0.31538 H 45.98115 c -0.720826,0 -1.171459,-0.39048 -1.351592,-1.17116 l -0.901242,-4.23519 H 43.36804 c -0.811182,1.98234 -2.027524,3.51407 -3.649604,4.59545 -1.591864,1.08139 -3.484149,1.62208 -5.676845,1.62208 -2.192695,0 -4.00987,-0.46559 -5.63195,-1.39677 -1.622068,-0.96109 -2.8836,-2.28275 -3.784559,-3.96497 -0.901254,-1.71186 -1.351875,-3.67926 -1.351875,-5.90216 z m 9.822247,-1.08138 c 0,1.59214 0.405444,2.86864 1.216342,3.82973 0.841116,0.93118 1.967385,1.39677 3.379116,1.39677 1.862352,0 3.289043,-0.82614 4.280358,-2.47815 0.991043,-1.68194 1.486842,-4.08497 1.486842,-7.20857 v -2.38807 c -0.841115,-0.15022 -1.637041,-0.22533 -2.388084,-0.22533 -2.462901,0 -4.415325,0.64573 -5.856978,1.93747 -1.411731,1.26152 -2.117596,2.97367 -2.117596,5.13615 z m 24.780351,4.91112 c 0,-0.66069 0.180145,-1.2316 0.540693,-1.71214 L 73.825188,118.75791 H 59.407495 c -0.330356,0 -0.615805,-0.10508 -0.856076,-0.31538 -0.210067,-0.24031 -0.315383,-0.52565 -0.315383,-0.85604 v -5.22643 c 0,-0.3304 0.105316,-0.60071 0.315383,-0.81098 0.240271,-0.24031 0.52572,-0.36044 0.856076,-0.36044 h 23.698964 c 0.330627,0 0.600832,0.12013 0.811181,0.36044 0.240284,0.21027 0.360278,0.48058 0.360278,0.81098 v 5.45168 c 0,0.66083 -0.180145,1.2315 -0.540693,1.71211 l -13.967084,19.19336 c 0.841103,-0.14993 1.69718,-0.22504 2.568217,-0.22504 2.162773,0 4.145119,0.19511 5.947333,0.5856 1.832146,0.36055 3.72442,0.9611 5.676844,1.8022 0.690905,0.30042 1.036209,0.8109 1.036209,1.53202 v 5.18132 c 0,0.48055 -0.149928,0.8109 -0.450338,0.99103 -0.300422,0.15021 -0.675943,0.13525 -1.126564,-0.0449 -2.252552,-0.84111 -4.250153,-1.42669 -5.992228,-1.75732 -1.71214,-0.36027 -3.589465,-0.54069 -5.63195,-0.54069 -2.042484,0 -3.994908,0.18042 -5.947332,0.54069 -1.922208,0.36056 -4.054765,0.94615 -6.397671,1.75732 -0.450621,0.15021 -0.826143,0.15021 -1.126553,0 -0.300139,-0.18042 -0.45035,-0.4958 -0.45035,-0.94614 z m 29.105615,-12.11998 c 0,-3.66428 0.705866,-6.98342 2.117596,-9.95706 1.411731,-3.00367 3.348899,-5.34656 5.812083,-7.0286 2.493118,-1.71209 5.256448,-2.56813 8.289958,-2.56813 3.0338,0 5.82734,0.85604 8.29023,2.56813 2.49312,1.68204 4.44554,4.02493 5.85727,7.0286 1.44165,2.97364 2.16278,6.29278 2.16278,9.95706 0,3.66457 -0.72113,6.99879 -2.16278,10.00238 -1.41173,2.97368 -3.36415,5.31657 -5.85727,7.02872 -2.46289,1.68193 -5.22621,2.52304 -8.29023,2.52304 -3.06373,0 -5.79684,-0.84111 -8.289958,-2.52304 -2.463184,-1.71215 -4.400352,-4.05504 -5.812083,-7.02872 -1.41173,-3.00359 -2.117596,-6.33781 -2.117596,-10.00238 z m 9.912025,0 c 0,3.81478 0.540694,6.75852 1.62208,8.83094 1.081391,2.04248 2.643052,3.06373 4.685532,3.06373 2.04277,0 3.61967,-1.02125 4.73098,-3.06373 1.11132,-2.07242 1.66698,-5.01616 1.66698,-8.83094 0,-3.81449 -0.55566,-6.74311 -1.66698,-8.78561 -1.11131,-2.07256 -2.68821,-3.10882 -4.73098,-3.10882 -2.04248,0 -3.604141,1.03626 -4.685532,3.10882 -1.081386,2.0425 -1.62208,4.97112 -1.62208,8.78561 z m 27.483542,-17.57139 c 0,-0.3304 0.10531,-0.60071 0.31566,-0.81098 0.24029,-0.24031 0.52545,-0.36044 0.8558,-0.36044 h 5.94733 c 0.33034,0 0.60083,0.10508 0.81117,0.31538 0.24028,0.21026 0.39049,0.4956 0.45035,0.85604 l 0.90124,4.41541 h 0.36028 c 0.81117,-2.04248 1.99759,-3.61942 3.55953,-4.73079 1.59186,-1.11137 3.45421,-1.66702 5.58677,-1.66702 2.28277,0 4.25015,0.60071 5.90216,1.80219 1.68222,1.20148 2.97366,2.91358 3.87491,5.13629 0.90096,2.22273 1.35159,4.85095 1.35159,7.88461 v 22.3025 c 0,0.33034 -0.12027,0.61551 -0.36056,0.85578 -0.21006,0.21035 -0.48055,0.31538 -0.8109,0.31538 h -7.20884 c -0.33035,0 -0.6158,-0.10508 -0.85607,-0.31538 -0.21007,-0.24027 -0.31539,-0.52544 -0.31539,-0.85578 v -21.58167 c 0,-2.19269 -0.45062,-3.87466 -1.35159,-5.04609 -0.90124,-1.17142 -2.17772,-1.75714 -3.82973,-1.75714 -1.83214,0 -3.22891,0.69084 -4.19002,2.07253 -0.96138,1.38169 -1.44193,3.37911 -1.44193,5.99222 v 20.32015 c 0,0.33034 -0.12,0.61551 -0.36028,0.85578 -0.21034,0.21035 -0.48054,0.31538 -0.81117,0.31538 h -7.20885 c -0.33035,0 -0.61551,-0.10508 -0.8558,-0.31538 -0.21035,-0.24027 -0.31566,-0.52544 -0.31566,-0.85578 z"
       id="Shape" />
    <path
       style="fill:#161d26;fill-opacity:1;fill-rule:nonzero;stroke:none;stroke-width:2.82345748"
       inkscape:connector-curvature="0"
       d="m -40.884284,153.85461 c -0.57071,0.45062 -0.690881,1.20138 -0.360443,2.25283 0.300352,0.93118 1.006217,2.08738 2.117585,3.46918 4.475381,5.52693 9.80692,10.12239 15.994525,13.78695 6.187604,3.66457 12.810868,6.36774 19.8695097,8.10981 7.0885754,1.77229 14.3273613,2.65829 21.7163473,2.65829 9.461686,0 18.472752,-1.38152 27.033197,-4.14512 8.560432,-2.73339 15.709146,-6.57808 21.446412,-11.5341 2.01228,-1.772 3.018556,-3.18373 3.018556,-4.23518 0,-0.39048 -0.165172,-0.78098 -0.495516,-1.17146 -0.450621,-0.45034 -0.991315,-0.60055 -1.62208,-0.45034 -0.630754,0.14993 -1.516753,0.52545 -2.658278,1.12628 -5.496712,2.88359 -12.194793,5.18132 -20.09455,6.89347 -7.86954,1.74206 -16.084668,2.6131 -24.645112,2.6131 -10.6029296,0 -20.84558111,-1.44165 -30.727684,-4.32525 -9.882103,-2.88359 -18.637924,-7.38899 -26.267193,-13.51645 -1.111309,-0.87104 -2.012563,-1.42698 -2.703314,-1.66726 -0.660805,-0.24027 -1.201463,-0.19509 -1.621962,0.13525 z"
       id="Path" />
    <path
       style="fill:#161d26;fill-opacity:1;fill-rule:nonzero;stroke:none;stroke-width:2.82345748"
       inkscape:connector-curvature="0"
       d="m 59.226502,156.10999 c -0.630754,0.60083 -0.795926,1.2316 -0.495516,1.89257 0.21035,0.48054 0.615793,0.75075 1.216625,0.81088 0.600549,0.0901 1.456625,0.0299 2.567934,-0.18013 1.802213,-0.39048 3.679538,-0.66097 5.63195,-0.81118 1.952424,-0.11999 3.649604,-0.0901 5.091268,0.0901 1.441936,0.21035 2.342907,0.5709 2.703456,1.08139 0.540693,0.81118 0.345316,2.52304 -0.58586,5.13643 -0.900971,2.6131 -2.132557,5.15111 -3.694498,7.6143 -0.600832,0.99103 -0.96111,1.77199 -1.081387,2.3429 -0.119994,0.57062 0.03028,1.05117 0.450621,1.44166 0.270205,0.2702 0.570627,0.40545 0.900971,0.40545 0.87132,0 2.13284,-0.766 3.784842,-2.29774 2.973672,-2.58318 5.061052,-5.64691 6.262716,-9.1912 0.660687,-1.83242 1.066131,-3.75462 1.216342,-5.76719 0.150211,-2.01228 -0.07516,-3.45421 -0.675943,-4.32526 -0.570616,-0.8411 -1.832136,-1.53201 -3.78456,-2.07241 -1.922207,-0.54069 -3.859658,-0.81118 -5.812082,-0.81118 -3.814776,0 -7.434163,0.90124 -10.858174,2.70346 -1.26152,0.6909 -2.207657,1.33663 -2.838705,1.93718 z"
       id="path6" />
    <path
       inkscape:connector-curvature="0"
       id="path886"
       style="fill:#ff6200;fill-opacity:1;fill-rule:nonzero;stroke:none;stroke-width:0.73933625"
       d="m 206.16094,129.89614 c 0,11.85303 -5.18127,19.58944 -12.8467,19.58944 -4.04565,0 -7.02666,-1.91635 -9.22692,-6.03297 h -0.35488 v 16.18258 c 0,0.70977 -0.42586,1.27758 -1.13563,1.27758 h -7.23957 c -0.70977,0 -1.13562,-0.56781 -1.13562,-1.27758 v -47.19923 c 0,-0.70975 0.42585,-1.20659 1.13562,-1.20659 h 5.962 c 0.63879,0 1.13562,0.42586 1.27757,1.20659 l 0.9227,4.25859 h 0.2839 c 1.63246,-3.76175 5.3942,-6.31689 9.51083,-6.31689 7.66543,0 12.8467,7.80738 12.8467,19.51848 z m -16.25356,-11.49817 c -4.04565,0 -6.3169,4.25858 -6.3169,11.49817 0,7.4525 2.27125,11.71108 6.3169,11.71108 4.04564,0 6.38786,-4.25858 6.38786,-11.71108 0,-7.38154 -2.34222,-11.49817 -6.38786,-11.49817 z" />
    <path
       inkscape:connector-curvature="0"
       id="path894"
       style="fill:#ff6200;fill-opacity:1;fill-rule:nonzero;stroke:none;stroke-width:0.73933625"
       d="m 220.20455,149.48558 c -6.38786,0 -10.71742,-4.54248 -10.71742,-11.28522 0,-8.16227 6.38787,-13.27256 16.4665,-13.27256 1.77441,0 2.83905,0.071 3.69077,0.2839 v -0.85172 c 0,-4.68443 -1.63246,-6.8847 -5.03932,-6.8847 -2.6971,0 -4.61346,1.56148 -5.32322,4.32955 -0.21293,0.85172 -0.70977,1.27758 -1.41952,1.13563 l -6.24592,-1.13563 c -0.85172,-0.14195 -1.2066,-0.70975 -0.99367,-1.56147 1.56148,-6.31689 6.88471,-9.8657 14.62112,-9.8657 9.15594,0 13.98232,5.03931 13.98232,14.47916 v 22.64143 c 0,0.70977 -0.49683,1.2066 -1.13562,1.2066 h -5.89102 c -0.70977,0 -1.13563,-0.42586 -1.27758,-1.2066 l -0.92269,-4.1876 h -0.42586 c -1.70342,3.97467 -5.03932,6.17493 -9.36887,6.17493 z m 3.69076,-7.1686 c 3.76176,0 5.74909,-3.40686 5.74909,-9.72375 V 130.322 c -0.70977,-0.14196 -1.49051,-0.21293 -2.34222,-0.21293 -4.89736,0 -7.94935,2.62611 -7.94935,6.95567 0,3.19393 1.77441,5.25224 4.54248,5.25224 z" />
    <path
       inkscape:connector-curvature="0"
       id="path902"
       style="fill:#ff6200;fill-opacity:1;fill-rule:nonzero;stroke:none;stroke-width:0.73933625"
       d="m 242.00967,157.57689 c -0.2839,0.56781 -0.071,1.20658 0.42586,1.49049 2.48418,1.41953 4.75541,2.12929 8.09131,2.12929 6.03297,0 10.57545,-3.83271 12.49182,-10.64644 l 10.50449,-37.90134 c 0.28391,-0.92268 -0.0709,-1.41952 -1.06465,-1.41952 h -7.52349 c -0.63877,0 -1.06463,0.35489 -1.20659,0.99366 l -5.89103,26.11928 h -0.35488 l -5.89104,-26.11928 c -0.14195,-0.63877 -0.56781,-0.99366 -1.20659,-0.99366 h -7.52349 c -0.92269,0 -1.34855,0.49684 -1.06465,1.41952 l 11.07231,38.39817 c -0.78074,1.27758 -1.91637,1.91637 -3.54881,1.91637 -1.41953,0 -2.48418,-0.28391 -3.33588,-0.9227 -0.70977,-0.49683 -1.2066,-0.42585 -1.56149,0.28391 z" />
  </g>
</svg>
